<svg width="164" height="70" viewBox="0 0 164 70" fill="none" xmlns="http://www.w3.org/2000/svg">
<path d="M39.1562 11.4141H19.9609V7.57031H39.1562V11.4141ZM19.9609 65.1797H12.2734V61.3359H8.42969V57.4922H4.58594V49.8047H0.765625V26.7656H4.58594V19.1016H8.42969V15.2578H12.2734V11.4141H19.9609V15.2578H16.1172V19.1016H12.2734V26.7656H8.42969V49.8047H12.2734V57.4922H16.1172V61.3359H19.9609V65.1797ZM46.8438 65.1797H39.1562V61.3359H43V57.4922H46.8438V49.8047H50.6641V26.7656H46.8438V19.1016H43V15.2578H39.1562V11.4141H46.8438V15.2578H50.6641V19.1016H54.5078V26.7656H58.3516V49.8047H54.5078V57.4922H50.6641V61.3359H46.8438V65.1797ZM39.1562 69H19.9609V65.1797H39.1562V69ZM81.3203 69H65.9688V65.1797H69.7891V34.4531H65.9688V30.6094H69.7891V26.7656H73.6328V22.9219H77.4766V30.6094H81.3203V34.4531H77.4766V65.1797H81.3203V69ZM108.203 69H92.8281V65.1797H96.6719V34.4531H92.8281V30.6094H81.3203V26.7656H96.6719V30.6094H100.516V34.4531H104.359V65.1797H108.203V69ZM135.086 69H119.711V65.1797H123.555V34.4531H119.711V30.6094H108.203V26.7656H123.555V30.6094H127.398V34.4531H131.242V65.1797H135.086V69ZM108.203 34.4531H104.359V30.6094H108.203V34.4531ZM156.615 10.92C155.399 10.92 154.375 10.504 153.543 9.672C152.775 8.776 152.391 7.72 152.391 6.504C152.391 4.776 152.903 3.4 153.927 2.376C155.015 1.352 156.231 0.839996 157.575 0.839996C158.855 0.839996 159.911 1.256 160.743 2.088C161.639 2.856 162.087 3.88 162.087 5.16C162.087 6.952 161.543 8.36 160.455 9.384C159.367 10.408 158.087 10.92 156.615 10.92ZM148.743 69.96C146.631 69.96 145.127 69.192 144.231 67.656C143.335 66.056 143.303 63.464 144.135 59.88L151.239 29.448C151.559 28.04 151.591 26.952 151.335 26.184C151.143 25.352 150.567 24.936 149.607 24.936C148.455 24.936 147.175 25.8 145.767 27.528C144.423 29.192 142.887 32.392 141.159 37.128C140.903 37.96 140.455 38.376 139.815 38.376C138.855 38.376 138.599 37.8 139.047 36.648C140.455 32.232 141.927 28.776 143.463 26.28C145.063 23.784 146.663 22.024 148.263 21C149.863 19.976 151.335 19.464 152.679 19.464C154.919 19.464 156.487 20.264 157.383 21.864C158.279 23.4 158.311 25.96 157.479 29.544L150.375 59.976C150.055 61.384 149.991 62.504 150.183 63.336C150.439 64.104 151.047 64.488 152.007 64.488C153.159 64.488 154.407 63.656 155.751 61.992C157.159 60.264 158.727 57.032 160.455 52.296C160.711 51.464 161.159 51.048 161.799 51.048C162.759 51.048 163.015 51.624 162.567 52.776C161.223 57.128 159.719 60.584 158.055 63.144C156.455 65.64 154.855 67.4 153.255 68.424C151.655 69.448 150.151 69.96 148.743 69.96Z" fill="white"/>
</svg>
